<?xml version="1.0" encoding="UTF-8"?>
<svg xmlns="http://www.w3.org/2000/svg" xmlns:xlink="http://www.w3.org/1999/xlink" width="650" height="223" version="1.1" viewBox="0 0 92.604 31.75" preserveAspectRatio="xMinYMin">
 <defs>
  <clipPath id="clip285">
   <path d="m62.23 68.547c-0.61719 0.33203-1.1641 0.77734-1.6055 1.3086h-0.015625c0 0.003906-0.003906 0.007812-0.007813 0.011719-1.043 0.10156-2.0273 0.41016-2.9062 0.88281-2.4258 1.3164-4.0742 3.8828-4.0742 6.8359 0 3.8984 2.8672 7.1211 6.6094 7.6797 0.38672 0.0625 0.78516 0.09375 1.1914 0.09375 1.3477 0 2.6172-0.34375 3.7227-0.95312 2.3945-1.3203 4.0195-3.8711 4.0195-6.8008 0-0.34766-0.023437-0.69141-0.066406-1.0273 0.20312-0.25391 0.38672-0.52734 0.54297-0.81641 0.42578-0.75391 0.66406-1.6211 0.66406-2.543 0-2.9375-2.4453-5.3203-5.4609-5.3203-0.94531 0-1.8359 0.23437-2.6133 0.64844"/>
  </clipPath>
  <clipPath id="clip287">
   <path d="m60.602 69.867c-3.9297 0.38672-7.0039 3.6992-7.0039 7.7305 0 3.8945 2.8711 7.1211 6.6094 7.6836 0.39062 0.058594 0.78516 0.089844 1.1914 0.089844 4.2891 0 7.7656-3.4766 7.7656-7.7656 0-0.34766-0.023437-0.69141-0.066406-1.0273 0.20312-0.25391 0.38672-0.52734 0.54297-0.81641 0.42578-0.75391 0.66406-1.6211 0.66406-2.543 0-2.9375-2.4453-5.3203-5.4609-5.3203-1.7109 0-3.2422 0.76953-4.2422 1.9688"/>
  </clipPath>
  <clipPath id="clip289">
   <path d="m60.602 69.867c-3.9297 0.38672-7.0039 3.6992-7.0039 7.7305 0 3.8945 2.8711 7.1211 6.6094 7.6836 0.39062 0.058594 0.78516 0.089844 1.1914 0.089844 4.2891 0 7.7656-3.4766 7.7656-7.7656 0-0.34766-0.023437-0.69141-0.066406-1.0273 0.20312-0.25391 0.38672-0.52734 0.54297-0.81641 0.42578-0.75391 0.66406-1.6211 0.66406-2.543 0-2.9375-2.4453-5.3203-5.4609-5.3203-1.7109 0-3.2422 0.76953-4.2422 1.9688"/>
  </clipPath>
  <clipPath id="clip291">
   <path d="m60.602 69.867c-3.9297 0.38672-7.0039 3.6992-7.0039 7.7305 0 3.8945 2.8711 7.1211 6.6094 7.6836 0.39062 0.058594 0.78516 0.089844 1.1914 0.089844 4.2891 0 7.7656-3.4766 7.7656-7.7656 0-0.34766-0.023437-0.69141-0.066406-1.0273 0.20312-0.25391 0.38672-0.52734 0.54297-0.81641 0.42578-0.75391 0.66406-1.6211 0.66406-2.543 0-2.9375-2.4453-5.3203-5.4609-5.3203-1.7109 0-3.2422 0.76953-4.2422 1.9688"/>
  </clipPath>
  <clipPath id="clip293">
   <path d="m60.602 69.867c-3.9297 0.38672-7.0039 3.6992-7.0039 7.7305 0 3.8945 2.8711 7.1211 6.6094 7.6836 0.39062 0.058594 0.78516 0.089844 1.1914 0.089844 4.2891 0 7.7656-3.4766 7.7656-7.7656 0-0.34766-0.023437-0.69141-0.066406-1.0273 0.20312-0.25391 0.38672-0.52734 0.54297-0.81641 0.42578-0.75391 0.66406-1.6211 0.66406-2.543 0-2.9375-2.4453-5.3203-5.4609-5.3203-1.7109 0-3.2422 0.76953-4.2422 1.9688"/>
  </clipPath>
  <clipPath id="clip295">
   <path d="m60.602 69.867c-3.9297 0.38672-7.0039 3.6992-7.0039 7.7305 0 3.8945 2.8711 7.1211 6.6094 7.6836 0.39062 0.058594 0.78516 0.089844 1.1914 0.089844 4.2891 0 7.7656-3.4766 7.7656-7.7656 0-0.34766-0.023437-0.69141-0.066406-1.0273 0.20312-0.25391 0.38672-0.52734 0.54297-0.81641 0.42578-0.75391 0.66406-1.6211 0.66406-2.543 0-2.9375-2.4453-5.3203-5.4609-5.3203-1.7109 0-3.2422 0.76953-4.2422 1.9688"/>
  </clipPath>
  <clipPath id="clip297">
   <path d="m60.602 69.867c-3.9297 0.38672-7.0039 3.6992-7.0039 7.7305 0 3.8945 2.8711 7.1211 6.6094 7.6836 0.39062 0.058594 0.78516 0.089844 1.1914 0.089844 4.2891 0 7.7656-3.4766 7.7656-7.7656 0-0.34766-0.023437-0.69141-0.066406-1.0273 0.20312-0.25391 0.38672-0.52734 0.54297-0.81641 0.42578-0.75391 0.66406-1.6211 0.66406-2.543 0-2.9375-2.4453-5.3203-5.4609-5.3203-1.7109 0-3.2422 0.76953-4.2422 1.9688"/>
  </clipPath>
  <clipPath id="clip299">
   <path d="m60.602 69.867c-3.9297 0.38672-7.0039 3.6992-7.0039 7.7305 0 3.8945 2.8711 7.1211 6.6094 7.6836 0.39062 0.058594 0.78516 0.089844 1.1914 0.089844 4.2891 0 7.7656-3.4766 7.7656-7.7656 0-0.34766-0.023437-0.69141-0.066406-1.0273 0.20312-0.25391 0.38672-0.52734 0.54297-0.81641 0.42578-0.75391 0.66406-1.6211 0.66406-2.543 0-2.9375-2.4453-5.3203-5.4609-5.3203-1.7109 0-3.2422 0.76953-4.2422 1.9688"/>
  </clipPath>
  <clipPath id="clip301">
   <path d="m60.602 69.867c-3.9297 0.38672-7.0039 3.6992-7.0039 7.7305 0 3.8945 2.8711 7.1211 6.6094 7.6836 0.39062 0.058594 0.78516 0.089844 1.1914 0.089844 4.2891 0 7.7656-3.4766 7.7656-7.7656 0-0.34766-0.023437-0.69141-0.066406-1.0273 0.20312-0.25391 0.38672-0.52734 0.54297-0.81641 0.42578-0.75391 0.66406-1.6211 0.66406-2.543 0-2.9375-2.4453-5.3203-5.4609-5.3203-1.7109 0-3.2422 0.76953-4.2422 1.9688"/>
  </clipPath>
  <clipPath id="clip303">
   <path d="m60.602 69.867c-3.9297 0.38672-7.0039 3.6992-7.0039 7.7305 0 3.8945 2.8711 7.1211 6.6094 7.6836 0.39062 0.058594 0.78516 0.089844 1.1914 0.089844 4.2891 0 7.7656-3.4766 7.7656-7.7656 0-0.34766-0.023437-0.69141-0.066406-1.0273 0.20312-0.25391 0.38672-0.52734 0.54297-0.81641 0.42578-0.75391 0.66406-1.6211 0.66406-2.543 0-2.9375-2.4453-5.3203-5.4609-5.3203-1.7109 0-3.2422 0.76953-4.2422 1.9688"/>
  </clipPath>
  <clipPath id="clip305">
   <path d="m60.602 69.867c-3.9297 0.38672-7.0039 3.6992-7.0039 7.7305 0 3.8945 2.8711 7.1211 6.6094 7.6836 0.39062 0.058594 0.78516 0.089844 1.1914 0.089844 4.2891 0 7.7656-3.4766 7.7656-7.7656 0-0.34766-0.023437-0.69141-0.066406-1.0273 0.20312-0.25391 0.38672-0.52734 0.54297-0.81641 0.42578-0.75391 0.66406-1.6211 0.66406-2.543 0-2.9375-2.4453-5.3203-5.4609-5.3203-1.7109 0-3.2422 0.76953-4.2422 1.9688"/>
  </clipPath>
  <clipPath id="clip307">
   <path d="m60.602 69.867c-3.9297 0.38672-7.0039 3.6992-7.0039 7.7305 0 3.8945 2.8711 7.1211 6.6094 7.6836 0.39062 0.058594 0.78516 0.089844 1.1914 0.089844 4.2891 0 7.7656-3.4766 7.7656-7.7656 0-0.34766-0.023437-0.69141-0.066406-1.0273 0.20312-0.25391 0.38672-0.52734 0.54297-0.81641 0.42578-0.75391 0.66406-1.6211 0.66406-2.543 0-2.9375-2.4453-5.3203-5.4609-5.3203-1.7109 0-3.2422 0.76953-4.2422 1.9688"/>
  </clipPath>
  <clipPath id="clip309">
   <path d="m60.602 69.867c-3.9297 0.38672-7.0039 3.6992-7.0039 7.7305 0 3.8945 2.8711 7.1211 6.6094 7.6836 0.39062 0.058594 0.78516 0.089844 1.1914 0.089844 4.2891 0 7.7656-3.4766 7.7656-7.7656 0-0.34766-0.023437-0.69141-0.066406-1.0273 0.20312-0.25391 0.38672-0.52734 0.54297-0.81641 0.42578-0.75391 0.66406-1.6211 0.66406-2.543 0-2.9375-2.4453-5.3203-5.4609-5.3203-1.7109 0-3.2422 0.76953-4.2422 1.9688"/>
  </clipPath>
  <clipPath id="clip311">
   <path d="m60.602 69.867c-3.9297 0.38672-7.0039 3.6992-7.0039 7.7305 0 3.8945 2.8711 7.1211 6.6094 7.6836 0.39062 0.058594 0.78516 0.089844 1.1914 0.089844 4.2891 0 7.7656-3.4766 7.7656-7.7656 0-0.34766-0.023437-0.69141-0.066406-1.0273 0.20312-0.25391 0.38672-0.52734 0.54297-0.81641 0.42578-0.75391 0.66406-1.6211 0.66406-2.543 0-2.9375-2.4453-5.3203-5.4609-5.3203-1.7109 0-3.2422 0.76953-4.2422 1.9688"/>
  </clipPath>
  <clipPath id="clip313">
   <path d="m60.602 69.867c-3.9297 0.38672-7.0039 3.6992-7.0039 7.7305 0 3.8945 2.8711 7.1211 6.6094 7.6836 0.39062 0.058594 0.78516 0.089844 1.1914 0.089844 4.2891 0 7.7656-3.4766 7.7656-7.7656 0-0.34766-0.023437-0.69141-0.066406-1.0273 0.20312-0.25391 0.38672-0.52734 0.54297-0.81641 0.42578-0.75391 0.66406-1.6211 0.66406-2.543 0-2.9375-2.4453-5.3203-5.4609-5.3203-1.7109 0-3.2422 0.76953-4.2422 1.9688"/>
  </clipPath>
  <clipPath id="clip315">
   <path d="m60.602 69.867c-3.9297 0.38672-7.0039 3.6992-7.0039 7.7305 0 3.8945 2.8711 7.1211 6.6094 7.6836 0.39062 0.058594 0.78516 0.089844 1.1914 0.089844 4.2891 0 7.7656-3.4766 7.7656-7.7656 0-0.34766-0.023437-0.69141-0.066406-1.0273 0.20312-0.25391 0.38672-0.52734 0.54297-0.81641 0.42578-0.75391 0.66406-1.6211 0.66406-2.543 0-2.9375-2.4453-5.3203-5.4609-5.3203-1.7109 0-3.2422 0.76953-4.2422 1.9688"/>
  </clipPath>
  <clipPath id="clip317">
   <path d="m60.602 69.867c-3.9297 0.38672-7.0039 3.6992-7.0039 7.7305 0 3.8945 2.8711 7.1211 6.6094 7.6836 0.39062 0.058594 0.78516 0.089844 1.1914 0.089844 4.2891 0 7.7656-3.4766 7.7656-7.7656 0-0.34766-0.023437-0.69141-0.066406-1.0273 0.20312-0.25391 0.38672-0.52734 0.54297-0.81641 0.42578-0.75391 0.66406-1.6211 0.66406-2.543 0-2.9375-2.4453-5.3203-5.4609-5.3203-1.7109 0-3.2422 0.76953-4.2422 1.9688"/>
  </clipPath>
  <clipPath id="clip319">
   <path d="m60.602 69.867c-3.9297 0.38672-7.0039 3.6992-7.0039 7.7305 0 3.8945 2.8711 7.1211 6.6094 7.6836 0.39062 0.058594 0.78516 0.089844 1.1914 0.089844 4.2891 0 7.7656-3.4766 7.7656-7.7656 0-0.34766-0.023437-0.69141-0.066406-1.0273 0.20312-0.25391 0.38672-0.52734 0.54297-0.81641 0.42578-0.75391 0.66406-1.6211 0.66406-2.543 0-2.9375-2.4453-5.3203-5.4609-5.3203-1.7109 0-3.2422 0.76953-4.2422 1.9688"/>
  </clipPath>
  <linearGradient id="linearGradient75590" x1="53.621" x2="70.305" y1="76.629" y2="76.629" gradientUnits="userSpaceOnUse">
   <stop stop-color="#1482dc" offset="0"/>
   <stop stop-color="#14cadc" offset="1"/>
  </linearGradient>
 </defs>
 <g transform="translate(-74.105 -66.124)">
  <g fill="#636363">
   <g stroke-width=".25793">
    <g transform="matrix(1.3677 0 0 1.3677 136.58 91.176)">
     <path d="m1.3438 0.03125c0.78125 0 1.125-0.39062 1.125-0.84375 0-1.1094-1.875-0.59375-1.875-1.4375 0-0.29688 0.25-0.54688 0.8125-0.54688 0.26562 0 0.57812 0.078125 0.82812 0.25l0.10938-0.26562c-0.23438-0.17188-0.59375-0.26562-0.9375-0.26562-0.78125 0-1.125 0.39062-1.125 0.84375 0 1.125 1.875 0.60938 1.875 1.4375 0 0.3125-0.25 0.54688-0.8125 0.54688-0.40625 0-0.79688-0.15625-1.0156-0.375l-0.125 0.25c0.23438 0.23438 0.67188 0.40625 1.1406 0.40625z"/>
    </g>
    <g transform="matrix(1.3677 0 0 1.3677 140.38 91.176)">
     <path d="m0.8125-0.28125v-1.125h1.5781v-0.28125h-1.5781v-1.0781h1.7812v-0.28125h-2.0938v3.0469h2.1562v-0.28125z"/>
    </g>
    <g transform="matrix(1.3677 0 0 1.3677 144.35 91.176)">
     <path d="m2.9375 0-0.75-1.0469c0.45312-0.14062 0.70312-0.48438 0.70312-0.95312 0-0.65625-0.46875-1.0469-1.25-1.0469h-1.1406v3.0469h0.3125v-0.96875h0.82812c0.078125 0 0.17188 0 0.25-0.015625l0.6875 0.98438zm-1.3125-1.25h-0.8125v-1.5156h0.8125c0.60938 0 0.9375 0.26562 0.9375 0.76562 0 0.46875-0.32812 0.75-0.9375 0.75z"/>
    </g>
    <g transform="matrix(1.3677 0 0 1.3677 148.78 91.176)">
     <path d="m0.5 0h0.3125v-3.0469h-0.3125z"/>
    </g>
    <g transform="matrix(1.3677 0 0 1.3677 150.65 91.176)">
     <path d="m0.8125-0.28125v-1.125h1.5781v-0.28125h-1.5781v-1.0781h1.7812v-0.28125h-2.0938v3.0469h2.1562v-0.28125z"/>
    </g>
    <g transform="matrix(1.3677 0 0 1.3677 154.8 91.176)">
     <path d="m1.3438 0.03125c0.78125 0 1.125-0.39062 1.125-0.84375 0-1.1094-1.875-0.59375-1.875-1.4375 0-0.29688 0.25-0.54688 0.8125-0.54688 0.26562 0 0.57812 0.078125 0.82812 0.25l0.10938-0.26562c-0.23438-0.17188-0.59375-0.26562-0.9375-0.26562-0.78125 0-1.125 0.39062-1.125 0.84375 0 1.125 1.875 0.60938 1.875 1.4375 0 0.3125-0.25 0.54688-0.8125 0.54688-0.40625 0-0.79688-0.15625-1.0156-0.375l-0.125 0.25c0.23438 0.23438 0.67188 0.40625 1.1406 0.40625z"/>
    </g>
   </g>
   <g>
    <path d="m113.43 85.541c0 0.064111-0.00534 0.12288-0.01068 0.18699-0.00534 0.058769-0.01603 0.11754-0.02672 0.18165l-0.10685 0.61974h-5.8662l-0.14425 0.82276h5.8662c-0.1122 0.59837-0.41673 1.1113-0.91893 1.5387-0.50755 0.43274-1.0685 0.64646-1.6776 0.64646h-3.649l-0.13891 0.78536h-0.00534l-0.28316 1.5707-0.22439 1.2609h-2.8369l0.22439-1.2609 0.27781-1.5707 1.1594-6.6088h6.5019c0.5396 0 0.98838 0.17096 1.3356 0.51823 0.34727 0.34726 0.52357 0.78002 0.52357 1.3089"/>
    <path d="m108.34 78.644v0.005342h3.5208v-0.005342h0.00534l0.17097-0.92427h-1.4906l0.4381-2.5591h4.8244l-0.60372 3.4834h-0.00534l-0.12823 0.73728c-0.06945 0.40604-0.21904 0.78002-0.44343 1.1166-0.17096 0.26179-0.38467 0.50755-0.64646 0.72659-0.59837 0.5022-1.2555 0.75865-1.9768 0.75865h-5.0007c-0.63577 0-1.154-0.20302-1.5494-0.6144-0.24575-0.25645-0.41672-0.54495-0.51288-0.87084-0.05877-0.20836-0.09083-0.43275-0.09083-0.66782 0-0.074795 0-0.14959 0.01069-0.22439 0.00534-0.074795 0.01068-0.14959 0.02137-0.22439l0.12822-0.73728h0.00534l0.89756-5.193c0.11754-0.72125 0.48083-1.3303 1.0792-1.8325 0.60372-0.50754 1.2608-0.75865 1.9768-0.75865h7.6025l-0.59302 3.3338h-6.8599l-0.77468 4.4504z"/>
    <path d="m120.24 74.193h6.8599l0.12822-0.74262c0.01068-0.08014 0.02137-0.1496 0.03205-0.21905 0.00535-0.074798 0.01069-0.14425 0.01069-0.22439 0-0.61974-0.20302-1.1326-0.60906-1.5387-0.41138-0.40604-0.92961-0.60906-1.5654-0.60906h-7.6025l-0.58235 3.3338z"/>
    <path d="m126 76.416c0.33124 0.41138 0.49686 0.78536 0.49686 1.1166v0.18699l-0.16562 0.92427h-0.00534l-0.33124 1.8539-0.26179 1.4852h-3.3391l0.26178-1.4852 0.33659-1.8539h0.00534l0.16562-0.92427h-3.5315l-0.16028 0.92427h-0.00534l-0.33124 1.8539-0.26179 1.4852h-3.3178l0.25645-1.4852 0.32589-1.8539h0.00535l0.60371-3.4834h10.188c-0.08014 0.36864-0.39001 0.78536-0.93495 1.2555"/>
    <path d="m132.85 74.193h3.3445l-0.24576-3.3338h-5.0007l-1.4211 3.3338z"/>
    <path d="m136.76 81.983h-3.3338l-0.11219-1.4852h-3.1575l-0.62508 1.4852h-3.3178l0.63043-1.4852 0.78536-1.8539h0.00534l1.4852-3.4834h3.3231l-1.0739 2.5591h1.7577l-0.19768-2.5591h3.3338l0.25645 3.4834h-0.00535l0.13891 1.8539z"/>
    <path d="m141.76 75.16-0.60906 3.4834h-0.00534l-0.3259 1.8539-0.26179 1.4852h-3.3178l0.26179-1.4852 0.32055-1.8539h0.00535l0.60905-3.4834z"/>
    <path d="m148.63 75.16-0.6144 3.4834h-0.00535l-0.32589 1.8539-0.26178 1.4852h-3.3391l0.26179-1.4852 0.33123-1.8539 0.61975-3.4834z"/>
    <path d="m148.96 73.232c0.01068-0.074798 0.01603-0.14425 0.01603-0.22439 0-0.61974-0.20837-1.1326-0.61441-1.5387-0.40604-0.40604-0.92961-0.60906-1.5654-0.60906h-7.6025l-0.58235 3.3338h10.194l0.12823-0.74262c0.01068-0.08014 0.02136-0.1496 0.02671-0.21905"/>
    <path d="m160.1 73.007c0 0.080137-0.00534 0.14959-0.01603 0.22439-0.00533 0.069452-0.01602 0.14425-0.0267 0.21905l-0.90291 5.193h-0.00533l-0.13357 0.73728c-0.06945 0.40604-0.21904 0.78002-0.4381 1.1166-0.17096 0.26179-0.38466 0.50755-0.65179 0.72659-0.59837 0.50755-1.2555 0.75865-1.9714 0.75865h-7.5812l0.26179-1.4852 0.32055-1.8539h0.00535l0.60905-3.4834h3.3284l-0.60372 3.4834h-0.00535v0.005342h3.5208v-0.005342h0.00534l0.78002-4.4504h-6.8599l0.58234-3.3338h7.6025c0.63577 0 1.1594 0.20302 1.5654 0.60906 0.41137 0.40603 0.61439 0.91892 0.61439 1.5387"/>
    <path d="m121.84 88.431c0.28316 0.34727 0.42206 0.66248 0.42206 0.94564v0.16028l-0.1389 0.78536h-0.00535l-0.27781 1.5707-0.22973 1.2609h-2.853l0.22438-1.2609 0.28851-1.5707h0.00534l0.13891-0.78536h-3.0132l-0.14425 0.78536-0.28316 1.5707-0.22439 1.2609h-2.8369l0.21904-1.2609 0.27782-1.5707h0.00534l0.51823-2.9705h8.7084c-0.06411 0.31521-0.33124 0.67317-0.80139 1.0792"/>
    <path d="m122.9 85.91c0.01069-0.064113 0.01603-0.12288 0.02671-0.18699 0.00535-0.058766 0.00535-0.11754 0.00535-0.18165 0-0.52892-0.17097-0.96167-0.51823-1.3089-0.34727-0.34727-0.79605-0.51823-1.341-0.51823h-6.4966l-0.49152 2.8156h8.7031z"/>
    <path d="m126.29 87.352-0.52891 2.9705-0.28316 1.5707-0.22439 1.2609h-2.8316l0.21905-1.2609 0.27781-1.5707 0.52358-2.9705z"/>
    <path d="m126.94 83.714h-2.853l-0.49686 2.8156h2.8476z"/>
    <path d="m135.17 93.154h-3.3284l-0.60905-1.2609-0.44344-0.90823-0.75865 0.90823-1.0472 1.2609h-3.3124l1.0472-1.2609 1.3036-1.5707 1.5707-1.8913-0.51823-1.0792h4.7442l-0.89755 1.0792 0.89755 1.8913h-0.00534l0.7533 1.5707h0.00535z"/>
    <path d="m136.84 83.714h-3.3284l-1.8058 2.1691-1.0525-2.1691h-3.3231l1.3463 2.8156h5.8181z"/>
   </g>
  </g>
  <g stroke-width=".25793">
   <g transform="matrix(1.3677 0 0 1.3677 7.3822 -22.807)" clip-path="url(#clip285)">
    <path d="m53.621 67.898v17.461h16.684v-17.461z" fill="url(#linearGradient75590)"/>
   </g>
   <g transform="matrix(1.3677 0 0 1.3677 7.3822 -22.807)" clip-path="url(#clip287)">
    <path d="m59.414 72.262c-0.058593-0.039063-0.12109-0.082031-0.18359-0.11719-0.20703-0.11719-0.41406-0.23438-0.61719-0.35156 0.23828-0.26953 0.47266-0.53516 0.71484-0.80859-0.375-0.21484-0.96875-0.55078-0.96875-0.55078 0.49609-0.23047 1.375-0.44922 1.6406-0.48438 0 0 0.027344 0.015625 0.046875 0.027343-0.23828 0.33984-0.47656 0.66797-0.71875 1.0078 0.31641 0.17969 0.63281 0.35938 0.95703 0.54297-0.007812 0.011718-0.015625 0.023437-0.023437 0.03125-0.26172 0.22266-0.52734 0.44922-0.78906 0.67188-0.015625 0.015625-0.039062 0.019531-0.058594 0.03125z" fill="#fff"/>
   </g>
   <g transform="matrix(1.3677 0 0 1.3677 7.3822 -22.807)" clip-path="url(#clip289)">
    <path d="m64.598 68.762c-0.29297 0.32812-0.57422 0.64453-0.86328 0.96094-0.10938 0.125-0.23047 0.24219-0.34375 0.36328-0.027344 0.027343-0.046875 0.035156-0.078125 0.015624-0.38672-0.21094-0.76953-0.42187-1.1523-0.63281-0.007812-0.003906-0.011718-0.007812-0.003906-0.003906 0.26562-0.41406 0.79688-1.2383 0.79688-1.2383 0.13281-0.050781 0.29688-0.097656 0.39453-0.125 0.48047 0.25391 0.74219 0.38672 1.25 0.66016" fill="#fff"/>
   </g>
   <g transform="matrix(1.3677 0 0 1.3677 7.3822 -22.807)" clip-path="url(#clip291)">
    <path d="m61.203 70.617c-0.39453-0.21875-0.77344-0.42969-1.1484-0.63672 0.007812-0.015625 0.023437-0.042969 0.023437-0.042969 0.17188-0.035156 0.52344-0.070312 0.52344-0.070312 0.36328-0.4375 0.63281-0.64453 0.80469-0.78516 0 0 0.25781 0.12109 0.73828 0.38281-0.31641 0.38672-0.62891 0.76953-0.94141 1.1523" fill="#fff"/>
   </g>
   <g transform="matrix(1.3677 0 0 1.3677 7.3822 -22.807)" clip-path="url(#clip293)">
    <path d="m58.141 70.531c-0.18359 0.29688-0.27734 0.42578-0.46094 0.72656-0.35938-0.20312-0.43359-0.24609-0.43359-0.24609s0.20312-0.13672 0.44141-0.25781c0.29688-0.16016 0.45312-0.22266 0.45312-0.22266" fill="#fff"/>
   </g>
   <g transform="matrix(1.3677 0 0 1.3677 7.3822 -22.807)" clip-path="url(#clip295)">
    <path d="m61.141 72.016c-0.13672-0.082031-0.27344-0.16406-0.41406-0.24219-0.14062-0.078126-0.28125-0.16016-0.42187-0.23828 0.30078-0.30469 0.59375-0.60547 0.89844-0.91406 0.32812 0.18359 0.66406 0.37109 1.0078 0.5625-0.14063 0.11719-0.27344 0.22656-0.41016 0.33594-0.19922 0.15625-0.40234 0.3125-0.60156 0.46875-0.015625 0.011719-0.039063 0.019531-0.058594 0.027344z" fill="#fff"/>
   </g>
   <g transform="matrix(1.3677 0 0 1.3677 7.3822 -22.807)" clip-path="url(#clip297)">
    <path d="m55.945 73.082c0.19141-0.16797 0.37891-0.32812 0.57422-0.49609-0.25781-0.15234-0.70703-0.41797-0.70703-0.41797 0.19141-0.21484 0.44531-0.42188 0.62891-0.57812 0 0 0.35547 0.21875 0.66016 0.39453-0.19531 0.20312-0.38672 0.40234-0.58203 0.60156 0.22656 0.13281 0.44922 0.26172 0.68359 0.39844-0.074219 0.054687-0.14453 0.10156-0.21094 0.14844-0.13281 0.089844-0.26563 0.17188-0.39453 0.26172-0.042968 0.03125-0.078125 0.035157-0.12891 0.003907-0.17188-0.10547-0.34766-0.20703-0.52344-0.31641" fill="#fff"/>
   </g>
   <g transform="matrix(1.3677 0 0 1.3677 7.3822 -22.807)" clip-path="url(#clip299)">
    <path d="m59.414 72.262c0.10938 0.058593 0.21875 0.11719 0.32422 0.17969 0.14453 0.078125 0.28516 0.16016 0.44531 0.25-0.30859 0.1875-0.60938 0.36328-0.91797 0.54688 0.19141 0.10938 0.37891 0.21875 0.57812 0.33594-0.023438 0.011719-0.039062 0.023437-0.054688 0.03125-0.27734 0.12109-0.55469 0.24219-0.83203 0.36328-0.019531 0.007812-0.050781 0.007812-0.066406 0-0.15234-0.089844-0.30469-0.17969-0.45703-0.26953-0.007813-0.003907-0.011719-0.007813-0.019532-0.015625 0.28125-0.14844 0.55859-0.29297 0.85156-0.44531-0.22266-0.12891-0.42969-0.25391-0.64844-0.37891 0.11719-0.085937 0.23437-0.16016 0.34375-0.24219 0.14844-0.10547 0.29297-0.21484 0.43359-0.32422 0.011719-0.007813 0.015625-0.023438 0.019531-0.03125" fill="#fff"/>
   </g>
   <g transform="matrix(1.3677 0 0 1.3677 7.3822 -22.807)" clip-path="url(#clip301)">
    <path d="m57.879 72.445c-0.015625-0.015624-0.03125-0.03125-0.050781-0.042968-0.24219-0.13672-0.48047-0.27734-0.72266-0.41797 0.19141-0.23828 0.37891-0.47656 0.57422-0.72266 0.30078 0.17188 0.60547 0.34766 0.92187 0.52734-0.074218 0.070313-0.14062 0.13672-0.21094 0.20313-0.14844 0.13672-0.29688 0.27344-0.44141 0.40625-0.023438 0.019531-0.046875 0.03125-0.070313 0.046874z" fill="#fff"/>
   </g>
   <g transform="matrix(1.3677 0 0 1.3677 7.3822 -22.807)" clip-path="url(#clip303)">
    <path d="m61.141 72.016c0.16016 0.089844 0.32031 0.17578 0.48047 0.26562 0.10156 0.058594 0.20312 0.11328 0.3125 0.17578-0.14062 0.082031-0.26562 0.16016-0.39844 0.23438-0.21094 0.12109-0.42578 0.23828-0.63672 0.35547-0.019532 0.011719-0.050782 0.019531-0.066407 0.011719-0.21484-0.11719-0.42578-0.24219-0.64844-0.36719 0.14453-0.09375 0.27734-0.18359 0.41406-0.27734 0.17578-0.12109 0.35156-0.24219 0.52734-0.36719 0.007812-0.007813 0.011719-0.019531 0.015625-0.03125" fill="#fff"/>
   </g>
   <g transform="matrix(1.3677 0 0 1.3677 7.3822 -22.807)" clip-path="url(#clip305)">
    <path d="m57.879 72.445c0.003906 0 0.007813 0 0.011719 0.003907 0.23828 0.13281 0.47266 0.26562 0.71875 0.40625-0.074219 0.054687-0.14062 0.10156-0.20703 0.14062-0.16797 0.10547-0.33594 0.20703-0.50391 0.3125-0.046876 0.03125-0.082032 0.035156-0.12891 0.003906-0.17578-0.10547-0.35156-0.20703-0.52734-0.30859-0.007813-0.003906-0.015626-0.011718-0.03125-0.019531 0.13281-0.10156 0.26172-0.19531 0.38672-0.29688 0.085938-0.066406 0.17188-0.13672 0.25781-0.21094 0.011719-0.007812 0.015625-0.019531 0.023437-0.03125" fill="#fff"/>
   </g>
   <g transform="matrix(1.3677 0 0 1.3677 7.3822 -22.807)" clip-path="url(#clip307)">
    <path d="m54.766 73.5c0.066406-0.12109 0.28516-0.42578 0.28516-0.42578s0.046875-0.066407 0.085938-0.11328l0.023437 0.011718c0.16797 0.097656 0.33203 0.19531 0.50781 0.30078-0.10156 0.078124-0.19922 0.15234-0.29688 0.22266-0.078125 0.058594-0.15625 0.11719-0.23828 0.16797-0.015624 0.011719-0.042968 0.023438-0.054687 0.015626-0.28516-0.16797-0.3125-0.17969-0.3125-0.17969" fill="#fff"/>
   </g>
   <g transform="matrix(1.3677 0 0 1.3677 7.3822 -22.807)" clip-path="url(#clip309)">
    <path d="m58.34 73.941c-0.27344 0.125-0.53125 0.24219-0.78906 0.35547-0.015625 0.003906-0.039062 0.003906-0.050781-0.003906-0.15625-0.089844-0.3125-0.17969-0.47656-0.27734 0.11719-0.0625 0.22266-0.12109 0.32812-0.17578 0.125-0.070313 0.25-0.14062 0.375-0.20703 0.015626-0.011718 0.046876-0.019531 0.0625-0.011718 0.17969 0.10547 0.35547 0.20703 0.55078 0.32031" fill="#fff"/>
   </g>
   <g transform="matrix(1.3677 0 0 1.3677 7.3822 -22.807)" clip-path="url(#clip311)">
    <path d="m55.738 73.961c0.19922-0.11719 0.39453-0.23047 0.58984-0.34375 0.019531-0.011719 0.054687-0.023438 0.070313-0.011719 0.17187 0.09375 0.33594 0.19531 0.51172 0.29688-0.015625 0.015625-0.023437 0.023437-0.035156 0.027344-0.21094 0.10156-0.41797 0.20312-0.63281 0.30078-0.015626 0.007812-0.046876 0.007812-0.0625 0-0.14453-0.082031-0.28516-0.16797-0.42969-0.25391-0.003906 0-0.007812-0.007812-0.011719-0.015624" fill="#fff"/>
   </g>
   <g transform="matrix(1.3677 0 0 1.3677 7.3822 -22.807)" clip-path="url(#clip313)">
    <path d="m55.676 74.387c-0.21875 0.082031-0.42578 0.15625-0.62891 0.23047-0.015625 0.007812-0.035156 0.007812-0.042969 0.003906-0.11719-0.066406-0.22656-0.13672-0.34766-0.20703 0.09375-0.046874 0.17578-0.085937 0.25781-0.125 0.097657-0.042968 0.19922-0.089843 0.29688-0.13281 0.019531-0.007812 0.046874-0.015625 0.0625-0.007812 0.13281 0.074218 0.26172 0.15234 0.40234 0.23828" fill="#fff"/>
   </g>
   <g transform="matrix(1.3677 0 0 1.3677 7.3822 -22.807)" clip-path="url(#clip315)">
    <path d="m63.207 71.633c-0.13672-0.082031-0.27734-0.16406-0.41406-0.24609-0.14062-0.078125-0.28125-0.15625-0.42188-0.23828 0.29688-0.30469 0.59375-0.60547 0.89844-0.91406 0.32812 0.18359 0.66406 0.37109 1.0078 0.5625-0.14062 0.11719-0.27344 0.23047-0.41016 0.33594-0.20313 0.16016-0.40234 0.3125-0.60547 0.46875-0.015625 0.015626-0.035157 0.019532-0.054688 0.03125z" fill="#fff"/>
   </g>
   <g transform="matrix(1.3677 0 0 1.3677 7.3822 -22.807)" clip-path="url(#clip317)">
    <path d="m65.562 69.273c-0.16406-0.085938-0.3125-0.16797-0.47266-0.25391-0.16406-0.085937-0.32812-0.17188-0.49219-0.25781 0.32812-0.35938 0.77734-0.84766 0.77734-0.84766 0.43359 0.039063 0.96094 0.16016 1.418 0.32422-0.15625 0.14062-0.33203 0.32031-0.48438 0.44531-0.22266 0.19141-0.45312 0.37891-0.67188 0.5625-0.054688 0.046875-0.0625 0.035156-0.0625 0.035156z" fill="#fff"/>
   </g>
   <g transform="matrix(1.3677 0 0 1.3677 7.3822 -22.807)" clip-path="url(#clip319)">
    <path d="m65.422 71.25c-0.16797-0.10547-0.33594-0.21094-0.50391-0.3125s-0.33984-0.20312-0.51172-0.30469c0.375-0.36719 0.75-0.73047 1.1328-1.1016 0.39844 0.23828 0.80469 0.48047 1.2227 0.72656-0.17578 0.14063-0.34375 0.27344-0.51562 0.39844" fill="#fff"/>
   </g>
  </g>
  <g fill="#fff">
   <path d="m91.608 80.963h-2.0409l-0.33658 2.089h2.0302z"/>
   <path d="m91.16 83.655h-4.2313l0.1122-0.60372 0.37398-2.089h-2.0836l-1.2395 6.9294h2.1264l0.42741-2.6499h2.2011l-0.4274 2.6499h2.0035l0.44344-2.4736z"/>
   <path d="m93.558 85.856 0.10685-0.60371h4.7442l0.48618-2.7942c0.1389-0.78002-0.45947-1.4906-1.2502-1.4906h-5.193l-0.35261 2.0836h4.8083l-0.10685 0.59837h-4.803l-0.71591 4.2367h6.6729l0.35261-2.0302z"/>
  </g>
 </g>
</svg>
